<svg width="36" height="36" viewBox="0 0 36 36" fill="none" xmlns="http://www.w3.org/2000/svg">
<path d="M18 24H18.012M18 15V19.5M15.8625 7.8255L5.2755 25.5C5.05737 25.8781 4.942 26.3066 4.94085 26.7431C4.9397 27.1796 5.05282 27.6087 5.26896 27.9879C5.48511 28.3671 5.79674 28.6831 6.17288 28.9045C6.54902 29.126 6.97656 29.2451 7.413 29.25H28.587C29.0236 29.2455 29.4514 29.1267 29.8278 28.9054C30.2043 28.6841 30.5161 28.368 30.7323 27.9886C30.9486 27.6093 31.0616 27.1799 31.0602 26.7433C31.0589 26.3066 30.9431 25.878 30.7245 25.5L20.139 7.8255C19.9164 7.45789 19.6027 7.15392 19.2282 6.94295C18.8538 6.73198 18.4313 6.62114 18.0015 6.62114C17.5717 6.62114 17.1492 6.73198 16.7748 6.94295C16.4004 7.15392 16.0867 7.45789 15.864 7.8255" stroke="#FF7B3D" stroke-width="2" stroke-miterlimit="10" stroke-linecap="round" stroke-linejoin="round"/>
</svg>
