<svg width="33" height="33" viewBox="0 0 33 33" fill="none" xmlns="http://www.w3.org/2000/svg">
    <path fill-rule="evenodd" clip-rule="evenodd"
          d="M1.92938 16.5C1.92938 12.6356 3.46449 8.92956 6.19701 6.19704C8.92953 3.46453 12.6356 1.92941 16.5 1.92941C20.3643 1.92941 24.0704 3.46453 26.803 6.19704C29.5355 8.92956 31.0706 12.6356 31.0706 16.5C31.0706 20.3644 29.5355 24.0705 26.803 26.803C24.0704 29.5355 20.3643 31.0706 16.5 31.0706C12.6356 31.0706 8.92953 29.5355 6.19701 26.803C3.46449 24.0705 1.92938 20.3644 1.92938 16.5ZM16.5 4.01941C14.0809 4.0195 11.714 4.7226 9.68716 6.0432C7.66034 7.3638 6.06099 9.24496 5.08368 11.4578C4.10636 13.6707 3.79321 16.1199 4.18232 18.5075C4.57143 20.8951 5.64603 23.1181 7.27538 24.9062C8.26441 23.3567 9.62814 22.0816 11.2405 21.1987C12.8528 20.3158 14.6617 19.8537 16.5 19.855C18.3382 19.8537 20.1471 20.3158 21.7595 21.1987C23.3718 22.0816 24.7356 23.3567 25.7246 24.9062C27.3539 23.1181 28.4285 20.8951 28.8176 18.5075C29.2068 16.1199 28.8936 13.6707 27.9163 11.4578C26.939 9.24496 25.3396 7.3638 23.3128 6.0432C21.286 4.7226 18.9191 4.0195 16.5 4.01941ZM24.1604 26.3538C23.3824 25.0116 22.265 23.8977 20.9204 23.1238C19.5758 22.35 18.0514 21.9435 16.5 21.945C14.9486 21.9435 13.4241 22.35 12.0795 23.1238C10.735 23.8977 9.61758 25.0116 8.83958 26.3538C11.0282 28.06 13.7249 28.9847 16.5 28.9806C19.3864 28.9806 22.044 27.9994 24.1604 26.3538ZM11.33 14.311C11.33 12.9398 11.8747 11.6248 12.8442 10.6553C13.8138 9.68571 15.1288 9.14101 16.5 9.14101C17.8712 9.14101 19.1862 9.68571 20.1557 10.6553C21.1253 11.6248 21.67 12.9398 21.67 14.311C21.67 15.6822 21.1253 16.9972 20.1557 17.9668C19.1862 18.9363 17.8712 19.481 16.5 19.481C15.1288 19.481 13.8138 18.9363 12.8442 17.9668C11.8747 16.9972 11.33 15.6822 11.33 14.311ZM16.5 11.231C16.0955 11.231 15.695 11.3107 15.3213 11.4655C14.9476 11.6202 14.6081 11.8471 14.3221 12.1331C14.0361 12.4191 13.8092 12.7587 13.6544 13.1323C13.4997 13.506 13.42 13.9065 13.42 14.311C13.42 14.7155 13.4997 15.116 13.6544 15.4897C13.8092 15.8634 14.0361 16.2029 14.3221 16.4889C14.6081 16.7749 14.9476 17.0018 15.3213 17.1566C15.695 17.3113 16.0955 17.391 16.5 17.391C17.3168 17.391 18.1003 17.0665 18.6779 16.4889C19.2555 15.9113 19.58 15.1279 19.58 14.311C19.58 13.4941 19.2555 12.7107 18.6779 12.1331C18.1003 11.5555 17.3168 11.231 16.5 11.231Z"
          fill="#FF7B3D"/>
</svg>
