<svg width="31" height="31" viewBox="0 0 31 31" fill="none" xmlns="http://www.w3.org/2000/svg">
    <path d="M15.5 28.4167C17.1965 28.4188 18.8768 28.0856 20.4442 27.4364C22.0116 26.7871 23.4352 25.8345 24.6334 24.6334C25.8345 23.4352 26.7871 22.0116 27.4363 20.4442C28.0856 18.8768 28.4187 17.1966 28.4167 15.5C28.4187 13.8035 28.0856 12.1232 27.4363 10.5558C26.7871 8.98842 25.8345 7.56476 24.6334 6.36663C23.4352 5.16548 22.0116 4.21292 20.4442 3.56366C18.8768 2.9144 17.1965 2.58125 15.5 2.58334C13.8034 2.58125 12.1232 2.9144 10.5558 3.56366C8.98841 4.21292 7.56475 5.16548 6.36661 6.36663C5.16547 7.56476 4.2129 8.98842 3.56364 10.5558C2.91438 12.1232 2.58123 13.8035 2.58332 15.5C2.58123 17.1966 2.91438 18.8768 3.56364 20.4442C4.2129 22.0116 5.16547 23.4352 6.36661 24.6334C7.56475 25.8345 8.98841 26.7871 10.5558 27.4364C12.1232 28.0856 13.8034 28.4188 15.5 28.4167Z"
          stroke="#51D298" stroke-width="2.5" stroke-linejoin="round"/>
    <path d="M10.3333 15.5L14.2083 19.375L21.9583 11.625" stroke="#51D298" stroke-width="2.5" stroke-linecap="round"
          stroke-linejoin="round"/>
</svg>
