<svg width="13" height="13" viewBox="0 0 13 13" fill="none" xmlns="http://www.w3.org/2000/svg">
<g clip-path="url(#clip0_188_3567)">
<mask id="mask0_188_3567" style="mask-type:luminance" maskUnits="userSpaceOnUse" x="0" y="0" width="13" height="13">
<path d="M6.50004 11.9167C7.2115 11.9175 7.91612 11.7778 8.57341 11.5056C9.23071 11.2333 9.82773 10.8338 10.3302 10.3301C10.8339 9.82768 11.2333 9.23066 11.5056 8.57337C11.7779 7.91607 11.9176 7.21145 11.9167 6.5C11.9176 5.78854 11.7779 5.08393 11.5056 4.42663C11.2333 3.76934 10.8339 3.17232 10.3302 2.66987C9.82773 2.16617 9.23071 1.7667 8.57341 1.49443C7.91612 1.22216 7.2115 1.08246 6.50004 1.08333C5.78859 1.08246 5.08397 1.22216 4.42668 1.49443C3.76938 1.7667 3.17236 2.16617 2.66992 2.66987C2.16621 3.17232 1.76675 3.76934 1.49448 4.42663C1.22221 5.08393 1.0825 5.78854 1.08338 6.5C1.0825 7.21145 1.22221 7.91607 1.49448 8.57337C1.76675 9.23066 2.16621 9.82768 2.66992 10.3301C3.17236 10.8338 3.76938 11.2333 4.42668 11.5056C5.08397 11.7778 5.78859 11.9175 6.50004 11.9167Z" fill="white" stroke="white" stroke-width="2" stroke-linejoin="round"/>
<path d="M4.33337 6.5L5.95837 8.125L9.20837 4.875" stroke="black" stroke-width="2" stroke-linecap="round" stroke-linejoin="round"/>
</mask>
<g mask="url(#mask0_188_3567)">
<path d="M0 0H13V13H0V0Z" fill="#51D298"/>
</g>
</g>
<defs>
<clipPath id="clip0_188_3567">
<rect width="13" height="13" fill="white"/>
</clipPath>
</defs>
</svg>
