<svg width="32" height="32" viewBox="0 0 32 32" fill="none" xmlns="http://www.w3.org/2000/svg">
<path d="M16 29.3333C14.1556 29.3333 12.4222 28.9831 10.8 28.2827C9.17778 27.5822 7.76667 26.6325 6.56667 25.4333C5.36667 24.2342 4.4169 22.8231 3.71734 21.2C3.01778 19.5769 2.66756 17.8436 2.66667 16C2.66578 14.1564 3.01601 12.4231 3.71734 10.8C4.41867 9.17689 5.36845 7.76578 6.56667 6.56667C7.7649 5.36756 9.17601 4.41778 10.8 3.71734C12.424 3.01689 14.1573 2.66667 16 2.66667C17.8427 2.66667 19.576 3.01689 21.2 3.71734C22.824 4.41778 24.2351 5.36756 25.4333 6.56667C26.6316 7.76578 27.5818 9.17689 28.284 10.8C28.9862 12.4231 29.336 14.1564 29.3333 16C29.3307 17.8436 28.9804 19.5769 28.2827 21.2C27.5849 22.8231 26.6351 24.2342 25.4333 25.4333C24.2316 26.6325 22.8204 27.5827 21.2 28.284C19.5796 28.9853 17.8462 29.3351 16 29.3333ZM16 26.6667C18.9778 26.6667 21.5 25.6333 23.5667 23.5667C25.6333 21.5 26.6667 18.9778 26.6667 16C26.6667 13.0222 25.6333 10.5 23.5667 8.43334C21.5 6.36667 18.9778 5.33334 16 5.33334C13.0222 5.33334 10.5 6.36667 8.43334 8.43334C6.36667 10.5 5.33334 13.0222 5.33334 16C5.33334 18.9778 6.36667 21.5 8.43334 23.5667C10.5 25.6333 13.0222 26.6667 16 26.6667Z" fill="#EC2D38"/>
<path d="M10.1105 10.1105C10.3331 9.88783 10.6351 9.76277 10.95 9.76277C11.2649 9.76277 11.5669 9.88783 11.7896 10.1105L15.9886 14.3095L20.1876 10.1105C20.4115 9.89414 20.7115 9.77444 21.0229 9.77715C21.3342 9.77986 21.6321 9.90474 21.8522 10.1249C22.0724 10.3451 22.1973 10.6429 22.2 10.9543C22.2027 11.2656 22.083 11.5656 21.8667 11.7896L17.6677 15.9886L21.8667 20.1876C22.083 20.4115 22.2027 20.7115 22.2 21.0229C22.1973 21.3342 22.0724 21.6321 21.8522 21.8522C21.6321 22.0724 21.3342 22.1973 21.0229 22.2C20.7115 22.2027 20.4115 22.083 20.1876 21.8667L15.9886 17.6677L11.7896 21.8667C11.5656 22.083 11.2656 22.2027 10.9543 22.2C10.6429 22.1973 10.3451 22.0724 10.1249 21.8522C9.90475 21.6321 9.77986 21.3342 9.77715 21.0229C9.77445 20.7115 9.89414 20.4115 10.1105 20.1876L14.3095 15.9886L10.1105 11.7896C9.88783 11.5669 9.76277 11.2649 9.76277 10.95C9.76277 10.6351 9.88783 10.3331 10.1105 10.1105Z" fill="#EC2D38"/>
</svg>
