<svg width="70" height="70" viewBox="0 0 70 70" fill="none" xmlns="http://www.w3.org/2000/svg">
<path d="M52.7406 21.875C53.997 20.9967 55.174 20.01 56.2581 18.9262C58.5419 16.6425 60.0687 13.8337 60.5587 11.0162C61.0969 7.92749 60.3094 5.05749 58.3975 3.14999C56.875 1.62749 54.81 0.818115 52.4256 0.818115C49.035 0.818115 45.4562 2.44561 42.6169 5.28499C38.0712 9.83062 35.4244 16.1 33.9981 20.58C32.9437 16.0825 30.8394 10.01 26.7487 5.91937C24.5569 3.72749 21.7525 2.59874 19.1012 2.59874C16.9356 2.59874 14.8794 3.35124 13.3394 4.88687C9.92248 8.30374 10.3862 14.3062 14.3719 18.2919C15.7937 19.7137 17.4562 20.895 19.2062 21.875H4.37061V39.375H8.7456V70H61.2456V39.375H65.6206V21.875H52.7406ZM46.095 8.76311C47.9894 6.86874 50.3562 5.73562 52.4212 5.73562C53.1519 5.73562 54.18 5.88874 54.915 6.62374C56.6956 8.40437 55.6937 12.5256 52.7756 15.4437C49.77 18.4494 45.7319 20.5144 42.2187 21.875H38.7537C40.0225 17.9419 42.3106 12.5475 46.095 8.76311ZM15.9906 10.9987C15.9425 10.3731 15.9862 9.20499 16.8262 8.36937C17.4443 7.79688 18.2636 7.49182 19.1056 7.52062C20.5581 7.52062 22.0762 8.20749 23.2706 9.39749C25.585 11.7119 27.4925 15.3956 28.7831 20.055L28.8837 20.4312L28.5075 20.3306C23.8525 19.04 20.1687 17.1325 17.85 14.8181C16.8 13.8048 16.1402 12.4542 15.9862 11.0031L15.9906 10.9987ZM30.625 65.625H13.125V37.1875H30.625V65.625ZM30.625 35H8.74998V26.25H30.625V35ZM56.875 65.625H39.375V37.1875H56.875V65.625ZM61.25 35H39.375V26.25H61.25V35Z" fill="#FF7B3D"/>
</svg>
