<svg width="33" height="33" viewBox="0 0 33 33" fill="none" xmlns="http://www.w3.org/2000/svg">
    <path d="M8.25 26.125H12.375V19.25C12.375 18.8604 12.507 18.5341 12.771 18.271C13.035 18.0079 13.3613 17.8759 13.75 17.875H19.25C19.6396 17.875 19.9664 18.007 20.2304 18.271C20.4944 18.535 20.6259 18.8613 20.625 19.25V26.125H24.75V13.75L16.5 7.5625L8.25 13.75V26.125ZM5.5 26.125V13.75C5.5 13.3146 5.59762 12.9021 5.79287 12.5125C5.98812 12.1229 6.25717 11.8021 6.6 11.55L14.85 5.3625C15.3313 4.99583 15.8813 4.8125 16.5 4.8125C17.1187 4.8125 17.6687 4.99583 18.15 5.3625L26.4 11.55C26.7438 11.8021 27.0133 12.1229 27.2085 12.5125C27.4037 12.9021 27.5009 13.3146 27.5 13.75V26.125C27.5 26.8813 27.2305 27.5289 26.6915 28.0679C26.1525 28.6069 25.5053 28.8759 24.75 28.875H19.25C18.8604 28.875 18.5341 28.743 18.271 28.479C18.0079 28.215 17.8759 27.8887 17.875 27.5V20.625H15.125V27.5C15.125 27.8896 14.993 28.2164 14.729 28.4804C14.465 28.7444 14.1387 28.8759 13.75 28.875H8.25C7.49375 28.875 6.84658 28.606 6.3085 28.0679C5.77042 27.5298 5.50092 26.8822 5.5 26.125Z"
          fill="#FF7B3D"/>
</svg>
