<svg width="21" height="24" viewBox="0 0 21 24" fill="none" xmlns="http://www.w3.org/2000/svg">
<path d="M15.75 6.75C15.75 6.94891 15.6809 7.13968 15.5578 7.28033C15.4347 7.42098 15.2678 7.5 15.0938 7.5H13.125C12.951 7.5 12.784 7.42098 12.661 7.28033C12.5379 7.13968 12.4688 6.94891 12.4688 6.75C12.4688 6.55109 12.5379 6.36032 12.661 6.21967C12.784 6.07902 12.951 6 13.125 6H15.0938C15.2678 6 15.4347 6.07902 15.5578 6.21967C15.6809 6.36032 15.75 6.55109 15.75 6.75ZM15.0938 9H13.125C12.951 9 12.784 9.07902 12.661 9.21967C12.5379 9.36032 12.4688 9.55109 12.4688 9.75C12.4688 9.94891 12.5379 10.1397 12.661 10.2803C12.784 10.421 12.951 10.5 13.125 10.5H15.0938C15.2678 10.5 15.4347 10.421 15.5578 10.2803C15.6809 10.1397 15.75 9.94891 15.75 9.75C15.75 9.55109 15.6809 9.36032 15.5578 9.21967C15.4347 9.07902 15.2678 9 15.0938 9ZM5.90625 7.5H7.875C8.04905 7.5 8.21597 7.42098 8.33904 7.28033C8.46211 7.13968 8.53125 6.94891 8.53125 6.75C8.53125 6.55109 8.46211 6.36032 8.33904 6.21967C8.21597 6.07902 8.04905 6 7.875 6H5.90625C5.7322 6 5.56528 6.07902 5.44221 6.21967C5.31914 6.36032 5.25 6.55109 5.25 6.75C5.25 6.94891 5.31914 7.13968 5.44221 7.28033C5.56528 7.42098 5.7322 7.5 5.90625 7.5ZM7.875 9H5.90625C5.7322 9 5.56528 9.07902 5.44221 9.21967C5.31914 9.36032 5.25 9.55109 5.25 9.75C5.25 9.94891 5.31914 10.1397 5.44221 10.2803C5.56528 10.421 5.7322 10.5 5.90625 10.5H7.875C8.04905 10.5 8.21597 10.421 8.33904 10.2803C8.46211 10.1397 8.53125 9.94891 8.53125 9.75C8.53125 9.55109 8.46211 9.36032 8.33904 9.21967C8.21597 9.07902 8.04905 9 7.875 9ZM18.375 4.5V21C18.375 21.1989 18.3059 21.3897 18.1828 21.5303C18.0597 21.671 17.8928 21.75 17.7188 21.75C17.5447 21.75 17.3778 21.671 17.2547 21.5303C17.1316 21.3897 17.0625 21.1989 17.0625 21V19.5H11.1562V21C11.1562 21.1989 11.0871 21.3897 10.964 21.5303C10.841 21.671 10.674 21.75 10.5 21.75C10.326 21.75 10.159 21.671 10.036 21.5303C9.91289 21.3897 9.84375 21.1989 9.84375 21V19.5H3.9375V21C3.9375 21.1989 3.86836 21.3897 3.74529 21.5303C3.62222 21.671 3.4553 21.75 3.28125 21.75C3.1072 21.75 2.94028 21.671 2.81721 21.5303C2.69414 21.3897 2.625 21.1989 2.625 21V4.5C2.625 4.10218 2.76328 3.72064 3.00942 3.43934C3.25556 3.15804 3.5894 3 3.9375 3H17.0625C17.4106 3 17.7444 3.15804 17.9906 3.43934C18.2367 3.72064 18.375 4.10218 18.375 4.5ZM9.84375 18V4.5H3.9375V18H9.84375ZM11.1562 18H17.0625V4.5H11.1562V18Z" fill="#FF7B3D"/>
</svg>
