<svg width="24" height="28" viewBox="0 0 24 28" fill="none" xmlns="http://www.w3.org/2000/svg">
    <path d="M17.8881 7.92516C17.8881 8.15483 17.8103 8.37508 17.672 8.53748C17.5337 8.69988 17.346 8.79111 17.1504 8.79111H14.9374C14.7418 8.79111 14.5541 8.69988 14.4158 8.53748C14.2775 8.37508 14.1997 8.15483 14.1997 7.92516C14.1997 7.6955 14.2775 7.47524 14.4158 7.31284C14.5541 7.15044 14.7418 7.05921 14.9374 7.05921H17.1504C17.346 7.05921 17.5337 7.15044 17.672 7.31284C17.8103 7.47524 17.8881 7.6955 17.8881 7.92516ZM17.1504 10.523H14.9374C14.7418 10.523 14.5541 10.6143 14.4158 10.7767C14.2775 10.9391 14.1997 11.1593 14.1997 11.389C14.1997 11.6186 14.2775 11.8389 14.4158 12.0013C14.5541 12.1637 14.7418 12.2549 14.9374 12.2549H17.1504C17.346 12.2549 17.5337 12.1637 17.672 12.0013C17.8103 11.8389 17.8881 11.6186 17.8881 11.389C17.8881 11.1593 17.8103 10.9391 17.672 10.7767C17.5337 10.6143 17.346 10.523 17.1504 10.523ZM6.82309 8.79111H9.03608C9.23172 8.79111 9.41935 8.69988 9.55769 8.53748C9.69603 8.37508 9.77375 8.15483 9.77375 7.92516C9.77375 7.6955 9.69603 7.47524 9.55769 7.31284C9.41935 7.15044 9.23172 7.05921 9.03608 7.05921H6.82309C6.62745 7.05921 6.43982 7.15044 6.30148 7.31284C6.16314 7.47524 6.08542 7.6955 6.08542 7.92516C6.08542 8.15483 6.16314 8.37508 6.30148 8.53748C6.43982 8.69988 6.62745 8.79111 6.82309 8.79111ZM9.03608 10.523H6.82309C6.62745 10.523 6.43982 10.6143 6.30148 10.7767C6.16314 10.9391 6.08542 11.1593 6.08542 11.389C6.08542 11.6186 6.16314 11.8389 6.30148 12.0013C6.43982 12.1637 6.62745 12.2549 6.82309 12.2549H9.03608C9.23172 12.2549 9.41935 12.1637 9.55769 12.0013C9.69603 11.8389 9.77375 11.6186 9.77375 11.389C9.77375 11.1593 9.69603 10.9391 9.55769 10.7767C9.41935 10.6143 9.23172 10.523 9.03608 10.523ZM20.8387 5.3273V24.3783C20.8387 24.608 20.761 24.8282 20.6227 24.9906C20.4843 25.153 20.2967 25.2442 20.101 25.2442C19.9054 25.2442 19.7178 25.153 19.5794 24.9906C19.4411 24.8282 19.3634 24.608 19.3634 24.3783V22.6464H12.7244V24.3783C12.7244 24.608 12.6467 24.8282 12.5083 24.9906C12.37 25.153 12.1824 25.2442 11.9867 25.2442C11.7911 25.2442 11.6035 25.153 11.4651 24.9906C11.3268 24.8282 11.2491 24.608 11.2491 24.3783V22.6464H4.61009V24.3783C4.61009 24.608 4.53238 24.8282 4.39404 24.9906C4.2557 25.153 4.06807 25.2442 3.87243 25.2442C3.67679 25.2442 3.48916 25.153 3.35082 24.9906C3.21248 24.8282 3.13477 24.608 3.13477 24.3783V5.3273C3.13477 4.86797 3.2902 4.42745 3.56688 4.10265C3.84356 3.77786 4.21881 3.59539 4.61009 3.59539H19.3634C19.7547 3.59539 20.1299 3.77786 20.4066 4.10265C20.6833 4.42745 20.8387 4.86797 20.8387 5.3273ZM11.2491 20.9145V5.3273H4.61009V20.9145H11.2491ZM12.7244 20.9145H19.3634V5.3273H12.7244V20.9145Z"
          fill="white"/>
</svg>
