<svg width="80" height="80" viewBox="0 0 80 80" fill="none" xmlns="http://www.w3.org/2000/svg">
    <g clip-path="url(#clip0_156_1548)">
        <path fill-rule="evenodd" clip-rule="evenodd"
              d="M6.6665 40C6.6665 21.59 21.5898 6.66667 39.9998 6.66667C58.4098 6.66667 73.3332 21.59 73.3332 40C73.3332 58.41 58.4098 73.3333 39.9998 73.3333C21.5898 73.3333 6.6665 58.41 6.6665 40ZM39.9998 13.3333C32.9274 13.3333 26.1446 16.1429 21.1437 21.1438C16.1427 26.1448 13.3332 32.9276 13.3332 40C13.3332 47.0724 16.1427 53.8552 21.1437 58.8562C26.1446 63.8572 32.9274 66.6667 39.9998 66.6667C47.0723 66.6667 53.855 63.8572 58.856 58.8562C63.857 53.8552 66.6665 47.0724 66.6665 40C66.6665 32.9276 63.857 26.1448 58.856 21.1438C53.855 16.1429 47.0723 13.3333 39.9998 13.3333Z"
              fill="#FF7B3D"/>
        <path d="M31.29 27.51C31.9166 26.61 32.2466 25.6433 32.3466 25.1333L37.2533 26.0933C36.9257 27.6338 36.2896 29.092 35.3833 30.38C34.3033 31.9167 32.6233 33.4867 30.1833 34.14C27.7466 34.7933 25.5033 34.2733 23.8033 33.4833C22.3731 32.8217 21.0918 31.8771 20.0366 30.7067L23.8033 27.42C24.15 27.8167 24.92 28.4867 25.91 28.95C26.88 29.4 27.8933 29.5767 28.89 29.31C29.8866 29.0433 30.6733 28.3833 31.29 27.51ZM31.6233 43C33.84 41.38 36.68 40 40 40C43.32 40 46.16 41.38 48.3766 43C50.5933 44.6167 52.3966 46.6267 53.71 48.2667C54.3181 49.0234 54.6429 49.9687 54.6283 50.9394C54.6137 51.9101 54.2606 52.8452 53.63 53.5833C52.5566 54.8567 50.5166 55.65 48.51 54.65L45.1766 52.9833C43.71 52.25 42.7433 51.95 42.0533 51.81C41.3756 51.6917 40.6875 51.6437 40 51.6667C39.1733 51.6667 38.6333 51.6733 37.9466 51.81C37.26 51.9467 36.29 52.25 34.8233 52.98L31.49 54.6467C30.6417 55.074 29.6736 55.2012 28.7437 55.0075C27.8138 54.8138 26.977 54.3106 26.37 53.58C25.7415 52.842 25.3901 51.908 25.3761 50.9388C25.3621 49.9696 25.6864 49.0258 26.2933 48.27C27.6033 46.6267 29.4066 44.62 31.6233 43ZM47.6566 25.1333C47.7566 25.6467 48.09 26.6133 48.7166 27.51C49.33 28.3833 50.1166 29.0433 51.1166 29.31C52.11 29.5767 53.1233 29.4 54.0933 28.95C55.0866 28.4867 55.8533 27.8167 56.1966 27.42L59.9666 30.7067C58.9115 31.8771 57.6302 32.8217 56.2 33.4833C54.5 34.2767 52.26 34.7933 49.82 34.14C47.3833 33.4867 45.7 31.9167 44.62 30.38C43.7149 29.0917 43.0799 27.6335 42.7533 26.0933L47.6566 25.1333Z"
              fill="#FF7B3D"/>
    </g>
    <defs>
        <clipPath id="clip0_156_1548">
            <rect width="80" height="80" fill="white"/>
        </clipPath>
    </defs>
</svg>
