<svg width="18" height="18" viewBox="0 0 18 18" fill="none" xmlns="http://www.w3.org/2000/svg">
<path d="M14.9968 7.96575V14.25C14.9968 14.6478 14.8387 15.0294 14.5574 15.3107C14.2761 15.592 13.8946 15.75 13.4968 15.75H4.50276C4.10507 15.7498 3.72373 15.5917 3.44259 15.3104C3.16144 15.0291 3.00351 14.6477 3.00351 14.25V7.96575M5.62626 6.5625L6.00126 2.25M5.62626 6.5625C5.62626 8.739 8.99976 8.739 8.99976 6.5625M5.62626 6.5625C5.62626 8.9445 1.76001 8.4525 2.30151 6.3765L3.08526 3.37125C3.16902 3.05027 3.35682 2.76611 3.61928 2.56323C3.88173 2.36035 4.20403 2.2502 4.53576 2.25H13.4638C13.7955 2.2502 14.1178 2.36035 14.3802 2.56323C14.6427 2.76611 14.8305 3.05027 14.9143 3.37125L15.698 6.3765C16.2395 8.45325 12.3733 8.9445 12.3733 6.5625M8.99976 6.5625V2.25M8.99976 6.5625C8.99976 8.739 12.3733 8.739 12.3733 6.5625M12.3733 6.5625L11.9983 2.25" stroke="white" stroke-width="1.5" stroke-linecap="round" stroke-linejoin="round"/>
</svg>
