<svg width="18" height="19" viewBox="0 0 18 19" fill="none" xmlns="http://www.w3.org/2000/svg">
<path d="M16.0625 1.9375V8.5H9.5V6.3125H12.7471C12.2344 5.62891 11.5964 5.09342 10.833 4.70605C10.0697 4.31868 9.26074 4.125 8.40625 4.125C7.73405 4.125 7.10173 4.23893 6.50928 4.4668C5.91683 4.69466 5.37565 5.00798 4.88574 5.40674C4.39583 5.8055 3.99707 6.28971 3.68945 6.85938C3.38184 7.42904 3.16536 8.03857 3.04004 8.68799L0.869629 8.31201C1.02913 7.38916 1.33675 6.54036 1.79248 5.76562C2.24821 4.99089 2.80648 4.31868 3.46729 3.74902C4.12809 3.17936 4.88574 2.73503 5.74023 2.41602C6.59473 2.09701 7.4834 1.9375 8.40625 1.9375C9.44303 1.9375 10.4342 2.13688 11.3799 2.53564C12.3255 2.93441 13.1572 3.51546 13.875 4.27881V1.9375H16.0625ZM8.40625 15.0625C9.06706 15.0625 9.69938 14.9486 10.3032 14.7207C10.9071 14.4928 11.4482 14.1795 11.9268 13.7808C12.4053 13.382 12.804 12.8978 13.123 12.3281C13.4421 11.7585 13.6585 11.1489 13.7725 10.4995L15.9429 10.8755C15.7834 11.7983 15.4757 12.6471 15.02 13.4219C14.5643 14.1966 14.006 14.8688 13.3452 15.4385C12.6844 16.0081 11.9268 16.4525 11.0723 16.7715C10.2178 17.0905 9.3291 17.25 8.40625 17.25C7.36947 17.25 6.37826 17.0506 5.43262 16.6519C4.48698 16.2531 3.65527 15.672 2.9375 14.9087V17.25H0.75V10.6875H7.3125V12.875H4.06543C4.57812 13.5586 5.21615 14.0941 5.97949 14.4814C6.74284 14.8688 7.55176 15.0625 8.40625 15.0625Z" fill="#FF7B3D"/>
</svg>
