<svg width="37" height="37" viewBox="0 0 37 37" fill="none" xmlns="http://www.w3.org/2000/svg">
    <path d="M7.70833 26.2083C7.70833 27.0261 8.03318 27.8103 8.61142 28.3886C9.18965 28.9668 9.97391 29.2917 10.7917 29.2917C11.6094 29.2917 12.3937 28.9668 12.9719 28.3886C13.5501 27.8103 13.875 27.0261 13.875 26.2083C13.875 25.3906 13.5501 24.6063 12.9719 24.0281C12.3937 23.4499 11.6094 23.125 10.7917 23.125C9.97391 23.125 9.18965 23.4499 8.61142 24.0281C8.03318 24.6063 7.70833 25.3906 7.70833 26.2083ZM23.125 26.2083C23.125 27.0261 23.4498 27.8103 24.0281 28.3886C24.6063 28.9668 25.3906 29.2917 26.2083 29.2917C27.0261 29.2917 27.8103 28.9668 28.3886 28.3886C28.9668 27.8103 29.2917 27.0261 29.2917 26.2083C29.2917 25.3906 28.9668 24.6063 28.3886 24.0281C27.8103 23.4499 27.0261 23.125 26.2083 23.125C25.3906 23.125 24.6063 23.4499 24.0281 24.0281C23.4498 24.6063 23.125 25.3906 23.125 26.2083Z"
          stroke="#FF7B3D" stroke-width="2" stroke-linecap="round" stroke-linejoin="round"/>
    <path d="M7.70833 26.2083H4.625V9.25001C4.625 8.84113 4.78743 8.44901 5.07654 8.15989C5.36566 7.87077 5.75779 7.70834 6.16667 7.70834H20.0417V26.2083M13.875 26.2083H23.125M29.2917 26.2083H32.375V16.9583M32.375 16.9583H20.0417M32.375 16.9583L27.75 9.25001H20.0417"
          stroke="#FF7B3D" stroke-width="2" stroke-linecap="round" stroke-linejoin="round"/>
</svg>
